# xmcd CD database file
#
# Track frame offsets:
#	150
#	20162
#	40188
#	57090
#	73966
#	90778
#	107637
#	124393
#	141171
#	157997
#	174839
#	190764
#	206778
#	219765
#	232812
#	249996
#	267257
#	283280
#	299355
#	316396
#	333505
#
# Disc length: 4465 seconds
#
# Revision: 0
# Processed by: cddbd v1.5.2PL0 Copyright (c) Steve Scherf et al.
# Submitted via: CDex 1.51
#
DISCID=34116f15
DTITLE=Bluesy JAZZ - Playalong Volume 35
DYEAR=2005
DGENRE=Jazz
TTITLE0=Angel Eyes
TTITLE1=Angel Eyes Playalong
TTITLE2=Bags' Groove 
TTITLE3=Bags' Groove Playalong
TTITLE4=Bloomdido
TTITLE5=Bloomdido Playalong
TTITLE6=D Natural Blues
TTITLE7=D Natural Blues Playalong
TTITLE8=Everyday I Have the Blues
TTITLE9=Everyday I Have the Blues Playalong
TTITLE10=Happy Go Lucky Local
TTITLE11=Happy Go Lucky Local Playalong
TTITLE12=Mercy, Mercy, Mercy
TTITLE13=Mercy, Mercy, Mercy Playalong
TTITLE14=Sonnymoon For Two
TTITLE15=Sonnymoon For Two Playalong
TTITLE16=Turnaround
TTITLE17=Turnaround Playalong
TTITLE18=Twisted
TTITLE19=Twisted Playalong
TTITLE20=Bb Tuning Notes
EXTD=YEAR: 2005
EXTT0=
EXTT1=
EXTT2=
EXTT3=
EXTT4=
EXTT5=
EXTT6=
EXTT7=
EXTT8=
EXTT9=
EXTT10=
EXTT11=
EXTT12=
EXTT13=
EXTT14=
EXTT15=
EXTT16=
EXTT17=
EXTT18=
EXTT19=
EXTT20=
PLAYORDER=
